<?xml version="1.0" encoding="UTF-8"?>
<svg id="_レイヤー_2" data-name="レイヤー 2" xmlns="http://www.w3.org/2000/svg" viewBox="0 0 100.49 109.59">
  <g id="_レイヤー_1-2" data-name="レイヤー 1">
    <path d="M0,89.13c0-6.57,13.15-12.08,21.25-14.23,4.43-1.18,5.85-4.06,4.54-8.32-1.41-4.59-2.71-9.23-4.43-13.7-3.51-9.13-.96-16.61,5.21-23.76,10.48-12.15,28.45-12.06,38.8-23.91,4.67-5.34,18.51-7.34,23.72-2.29,3.36,3.25,8.54,5.6,7.41,11.93,4.29,4.19,4.34,8.9,3.67,10.99-.41,1.28-4.52,6.65-9.98,6.59-4.65-.05-6.55,5.53-6.7,9.26-.64,15.45,3.54,29.89,8.75,44.12,2.23,6.09-2.82,21.51-7.94,18.75-5.62-3.04-1.79-8.57-2.12-15.73-.27-5.84-5.02-10.55-8.63-15.21-5.17-6.68-9.73-12.95-8.21-21.93,.53-3.13-.92-3.27-3.41-1.89-5.5,3.06-5.78,3.47-1.77,8.07,5.43,6.21,6.72,13.1,4.33,20.86-1.17,3.8-9.02,18.02,.35,20.97,2.9,.91,7.26,2.39,5.94,6.75-1.34,4.41-5.81,2.87-9.1,2.94-3.79,.07-7.6-.18-11.38-.54-9.23-.9-2.57-16.61-1.13-22.21,2.02-7.86-.6-14.05-7.13-15.42-.5,1.45-.37,9.47-4.83,12.16-1.75,1.05-11.74,4.5-14.62,5.28-4.83,1.3-6.34,4.16-4.71,8.93,.11,.31,5.41,9.08-.15,10.28-7.96,1.73-17.73-12.16-17.73-18.73Z"/>
  </g>
</svg>