<?xml version="1.0" encoding="UTF-8"?>
<svg id="_レイヤー_2" data-name="レイヤー 2" xmlns="http://www.w3.org/2000/svg" viewBox="0 0 73.75 234.78">
  <g id="_レイヤー_1-2" data-name="レイヤー 1">
    <path d="M71.82,65.03c-.74-.68-1.19-2.02-2.47-1.74-.04-.78-.91-.55-1.53-.48l1.34-1.61s.02-.04,.04-.07l1.2-1.52,3.35-22.93c.1-.66-.65-1.11-1.19-.72l-4.63,3.35c-.17,.12-.28,.3-.3,.5l-2.87,19.92-21.86,.33c-.27,0-.53,.13-.7,.34l-2.95,3.57c-1.21-.15-2.35-.29-3.28-.43l-1.11-4.78c-.65-1.33-1.34-2.65-1.93-3.98-.92-2.03-2.41-3.44-3.78-5.16-2.13-2.67-3.92-5.66-6.18-8.23-.67-.77-1.37-1.47-2.09-2.17,.04-.55,.09-1.1,.12-1.65,.09-2.03-.76-3.17-1.95-4.11,.07-.25,.14-.5,.23-.74,.65,.15,1.44,.37,2.14,.4,1.12,.04,2.43-.15,3.28-.9,.98-.87,1.35-2.86,1.74-4.07,.97-3.01,2.36-5.78,2.18-8.97-.05-1.13-.67-2.14-.76-3.25-.09-1.12,.45-1.85,.75-2.86,.41-1.4,.1-3.29-.24-4.68-.62-2.55-2.34-4.57-4.48-6.01C21.63,.87,19.33,.42,16.69,.16c-.7-.07-1.4-.1-2.11-.1-1.18-.13-2.44-.03-3.24,.06-3.38,.4-5.78,2.5-7.63,5.22-.8,1.18-1.66,2.71-1.92,4.13-.09,.49,.02,.95-.07,1.44-.16,.8-.63,1.49-.77,2.3-.12,.67-.03,1.3,.02,1.98,.1,1.6,.25,3.12,.5,4.71,.38,2.39,.85,4.71,.95,7.13,.07,1.59-.26,3.08-.86,4.54-.58,1.4-1.26,2.72-1.2,4.28,.04,1.11,.54,2.08,1.28,2.88-.85,2.55-1.3,5.25-1.34,7.93,0,.19,0,.38,0,.57,0,2.9-.24,5.74-.29,8.61-.04,2.31,.27,4.61,.56,6.9,.36,2.89,1.3,5.35,2.3,8,.79,2.11,.8,4.14,1.05,6.37,.57,5.08,1.48,10.1,1.7,15.19,.12,2.84-.23,7.6,3.16,8.66,.05,.02,.09,.02,.13,.03-1.24,3.44-2.27,6.96-2.95,10.75-1.2,6.69-.26,12.68,1.78,18.92,1.81,5.54,1.65,11.54,1.95,17.35,.05,.87,.1,1.74,.18,2.6,.04,.41,.12,.88,.2,1.35-.25,1.16-.5,2.31-.73,3.47-1.56,7.68,.44,15.4,.44,23.21,0,5.98-3.12,10.69-2.06,16.38,.82,4.41,1.18,7.73,.02,12.23-.7,2.75-1.72,5.29-1.48,8.14,.36,.1,.77,.23,1.2,.36-1.71,2.85-3.94,5.96-4.19,9.23-.28,3.75,2.42,4.09,6.14,3.65,1.42-.16,2.7-1,4.13-1.31-.02,.21-.02,.41-.04,.59-.33,6.14,4.56,5.76,9.1,5.5,4.48-.26,8.12,.8,12.48,1.29,2.86,.33,9.97,.05,10-3.92,.02-3.37-6.22-3.94-8.41-4.96-4.09-1.88-6.2-4.39-9.13-7.25-.1-1.07-.31-2.22-.31-3.47,0-7.47,.7-15.6,1.08-23.27,.27-5.64,3.05-11.11,3.89-16.7,.44-2.91-.33-5.11-.41-7.83-.11-3.93,1.57-8.15,2.13-12.08,1.72-11.85,4.65-22.45,4.01-34.62-.21-4.06,0-11.49-.68-18.92,.36-.18,.68-.4,.9-.69,.78-1,.27-3.7,.16-4.87-.36-3.67-.2-7.46,.02-11.13,.2-3.16-.28-6.04-.47-9.18-.07-1.18-.1-2.35-.12-3.53,3.73-.58,10.89-1.8,11.54-1.8,2.04-.02,3.96,.47,5.98,.58,1.56,.08,3.21,.09,4.74,.44,1.11,.26,2.35,.58,3.52,.48,.89-.07,1.6-.58,2.41-.8,.58-.15,3.68-.55,4.84-1.84,1.5-1.66,1.05-4.27,1.05-4.27,0,0-.02,0-.02-.02Zm-18.59,.81l5.18-.08c-.34,.13-.67,.26-1.02,.38-1.52,.53-2.68,.02-4.17-.3Z"/>
  </g>
</svg>