<?xml version="1.0" encoding="UTF-8"?>
<svg id="_レイヤー_2" data-name="レイヤー 2" xmlns="http://www.w3.org/2000/svg" viewBox="0 0 82.18 173">
  <g id="_レイヤー_1-2" data-name="レイヤー 1">
    <path d="M18.22,113.2c-10.36-4.75-17.2-12.04-14.12-25.08,3.27-13.83,13.82-24.18,16.82-44.9,6.67-21.59,9.72-27.27,26.89-31.59,3.09-.78,12.57-8.91,16.9-10.86,2.81-1.26,9.96-1.21,13.39,2.08,3.43,3.3,2.82,9.38,2.87,10.84,1.26,.77,1.68,4.72,.52,7.21-1.67,3.59-8.23,5.24-9.52,4.75-7.16-2.68-11.48,4.21-12.84,11.75-1.17,6.45-4.19,12.56-6.62,19.49,5.12,4.4,11.21,9.56,17.21,14.82,3.07,2.69,7.22,5.95,3.96,10.13-2.99,3.83-10.83,6.56-13.11,2.92-1.21-1.93,2.61-3.68,1.19-6.32-1.25-2.33-5.28-4.2-9.95-5.66,5.47,6.97,4.35,17.2,5.5,27.67,1.11,10.09-.22,17.15-5.71,24.06-.96,8.87-2.1,17.73-2.69,26.62-.46,6.91,3.24,11.41,10.88,14.17,4.7,1.7,11,.29,10.24,4.78s-18.48,2.44-27.63,2.47c-4.38,.01-6.1-2.64-4.18-6.41,3.06-5.67,2.07-15.18-1.54-22.07-3.15-5.45-2.39-19.41,2.52-25.64-.71-.23-3.16-1.29-3.87-1.52-9.75,6.98-13.79,23.16-19.06,32.63-2.78,5-1.88,8.3,3.29,10.74,5.26,2.49,16.32,4.19,14.87,7.44s-7.3,3.12-10.7,1.96c-5.94-2.04-11.46-2.35-17.48-.65-4.41,1.24-7.91-2.79-5.4-6.46,5.37-7.85,5.35-16.44,6.05-25.28,.36-4.47,9.76-21.37,11.33-24.1Z"/>
  </g>
</svg>