<?xml version="1.0" encoding="UTF-8"?>
<svg id="_レイヤー_2" data-name="レイヤー 2" xmlns="http://www.w3.org/2000/svg" viewBox="0 0 81.46 188.47">
  <g id="_レイヤー_1-2" data-name="レイヤー 1">
    <path d="M65.33,94.3c-2-.81-3.65-2-3.76-4.58-.02-.49-.8-1.09-1.35-1.39-2.63-1.43-5.31-2.77-8.33-4.33-.96,3.1-1.97,6.04-2.71,9.05-.18,.74,.44,1.75,.86,2.55,1.73,3.35,3.75,6.56,5.22,10.01,1.61,3.8,2.72,7.8,4.03,11.72,.27,.8,.3,1.7,.68,2.43,3.32,6.39,2.65,13.05,1.76,19.85-.76,5.85-1.11,11.76-1.43,17.66-.21,3.91-.09,7.85-.03,11.77,.08,5.41,2.57,8.64,7.77,10.04,3.49,.94,7.01,1.75,10.53,2.54,1.65,.37,2.85,.92,2.9,2.93,.05,1.96-1.15,2.38-2.67,2.82-5.58,1.63-11.03,1.45-16.52-.58-1.72-.64-3.76-.46-5.66-.56-1.23-.07-2.46,.1-3.69,.04-2.61-.12-3.4-1-3.34-3.6,.08-3.38,.56-6.8,.16-10.11-.54-4.48-1.51-8.94-2.72-13.29-1.84-6.62-2.1-13.13-.11-19.76,1.86-6.17-.02-11.15-5.3-14.9-.11,.06-.3,.1-.34,.2-4.72,10.74-12.46,19.54-18.7,29.31-2.71,4.25-4.93,8.81-7.34,13.26-1.19,2.2-.56,4.06,1.4,5.42,3.21,2.21,6.44,4.39,9.77,6.42,1.24,.75,2.78,1,4.15,1.56,.53,.22,.97,.66,1.45,1-.43,.6-.74,1.39-1.32,1.76-2.87,1.8-5.87,2.04-9.27,1.34-3.98-.82-7.5-2.56-11.15-4.12-2.25-.96-4.65-1.57-6.99-2.34-3.51-1.15-4.04-2.58-2.39-5.86,2.07-4.11,4.2-8.21,5.95-12.45,1.04-2.53,1.7-5.3,2.03-8.02,.7-5.75,3.18-10.56,7.12-14.67,2.02-2.11,4.17-4.1,6.37-6.02,1.92-1.68,3.05-3.65,2.91-6.23-.17-3.22-.61-6.44-.51-9.65,.08-2.78,.44-5.63,1.26-8.28,.85-2.74,.72-4.7-1.53-6.78-4.2-3.88-4.38-8.96-3.16-14.12,.61-2.6,1.85-5.05,2.58-7.62,.31-1.09,.44-2.48,.03-3.49-2.58-6.5-2.51-12.92-.62-19.64,1.49-5.3,2.16-10.83,3.18-16.26,1.04-5.55,3.92-10.18,7.62-14.24,2.67-2.93,5.36-5.49,6.58-9.62,1.53-5.18,5.46-9.06,9.64-12.4,4.23-3.39,9.18-3.68,14.23-2.34,1.09,.29,2.07,1.26,2.95,2.07,1.45,1.32,2.8,2.77,4.18,4.18,.27,.27,.64,.54,.72,.87,.55,2.24,1.08,4.48,1.51,6.75,.25,1.31,.31,2.66,.43,3.99,.03,.37,.07,.85-.13,1.1-2.21,2.85-3.82,6.45-8.35,6.28-1.45-.06-2.91,.23-4.36,.37-1.47,.15-1.95,1.06-1.75,2.42,.11,.76,.19,1.54,.44,2.26,1.44,4.17,2.94,8.33,4.38,12.5,.18,.53,.26,1.19,.13,1.73-1.06,4.54-2.05,9.11-3.33,13.58-.99,3.45-2.27,6.83-3.64,10.15-.59,1.43-.53,2.44,.13,3.85,1.81,3.86,4.83,6.48,8.18,8.86,3.64,2.57,7.32,5.11,10.88,7.78,3.42,2.57,3.62,6.16,.76,9.38-.7,.79-1.29,1.72-1.75,2.67-1.19,2.42-3.35,3.66-5.68,4.6-.54,.22-1.53-.1-2.04-.51-.96-.77-1.66-1.84-2.58-2.68-1.24-1.14-2.2-2.09-1.13-4.05,.65-1.19,.51-2.82,.78-4.59Z"/>
  </g>
</svg>