<?xml version="1.0" encoding="UTF-8"?>
<svg id="_レイヤー_2" data-name="レイヤー 2" xmlns="http://www.w3.org/2000/svg" viewBox="0 0 161.88 218.45">
  <defs>
    <style>
      .cls-1 {
        fill: none;
      }
    </style>
  </defs>
  <g id="_レイヤー_1-2" data-name="レイヤー 1">
    <g>
      <path class="cls-1" d="M91,14.75c.01-.9-.05-.96,.95-1.17,1.81-.4,3.66-.43,5.6-.51,1.1-.04,2.19-.03,3.27,0,1.07,.03,2.15,.08,3.23,.12,1.69,.07,3.37,.14,5.03,.43,.99,.17,2.65,.18,3.43,.84,.56,.46,.28,2,.29,2.69,.01,1.08,0,2.17-.15,3.25-.13,.97,.02,2.04-1.2,2.07-3.04,.07-6.12-.61-9.2-.49-2.17,.09-4.33-.18-6.5-.2-1.15,0-3.58,.93-4.48-.07-.64-.7-.21-3.11-.25-4.05-.03-.97-.03-1.95-.03-2.91Z"/>
      <path d="M3.85,217.72c8.43,3.32,12.84-5.47,15.94-11.68,1.57-3.15,2.98-6.84,5.91-9.04,2.71-2.04,4.72-3.89,7.17-6.37,2.56-2.58,5.14-5.05,7.59-7.85,3.35-3.84,7.28-7.14,10.77-10.85,.28,.12,.59,.25,.85,.36,3.91,1.74,8.52,2.35,12.72,2.9,7.07,.94,14.54,.52,19.62-5.28,2.14-2.45,3.1-5.51,4.68-8.28,1.54-2.69,3.71-4.91,5.47-7.45,2.11-3.06,3.72-7.84,6.95-9.76,2.74,2.77,3.89,5.4,5.79,8.66,1.96,3.36,4.18,6.63,6.25,9.92,2.73,4.37,6.9,6.49,11.75,7.69,.26,.06,.51,.12,.77,.18-1.6,3.47-2.87,7.22-4.67,10.13-2.3,3.73-5.45,6.74-7.81,10.47-6.16,9.76,8.19,7.71,13.55,8.03,4.82,.28,8.99,2.29,13.82,2,1.51-.09,5.44,.1,6.2-1.78,.89-2.23-2.65-3.32-4.15-3.74-3.89-1.07-7.89-2.44-11.42-4.56-2.44-1.46-2.47-2.42-1.11-4.9,2.57-4.68,8.26-8.34,11.33-13.04,4.26,.08,9.84-.5,12.96-2.79,2.91-2.12,4.81-7.29,5.79-10.7,1.77-6.19,2.22-12.14-1.77-17.49-9.55-12.8-21.91-24.17-34.08-34.56-1.42-1.21-4.19-2.45-4.99-4.21-.69-1.51-.28-4.19,.07-6.33,.41-.05,.81-.09,1.22-.14,1.16-.13,2.71,.06,3.82-.3,1.76-.58,2.26-3.04,2.46-4.84,.81-7.45-3.31-14.46-2.98-21.78,2.9-.45,6.27,.27,9.27,.02,3.46-.28,6.99-.89,10.39-1.62,1.17-.25,2.36-.48,2.98-1.57,.82-1.43,.31-3.89,.19-5.4-.2-2.7-.63-5.45-1.42-8.05-.6-1.96-2.08-5.31-4.01-6.72l4.63-2.83c.8-.49,.74-1.18-.13-1.53l-.43-.18c-.87-.35-2.24-.23-3.04,.26l-5.71,3.51c-1.02,0-2.03-.04-2.96-.39-3.01-1.14-5.27-4.15-8.2-5.6-2.9-1.44-6.03-2.03-9.21-2.46-.41-1.79-3.12-2.96-4.36-3.76-.26-.17-.52-.34-.77-.51,.79-2.4,1.36-4.93,2.06-7,.86-2.56,1.82-5.25,2.52-7.77,.67-2.39-.48-6.78-1.18-9.14-1.27-4.31-3.91-6.52-7.99-8.19-1.47-.61-3.14-1.24-4.69-1.39-3.52-.34-7.19,1.7-9.61,4.07-1.35,1.32-2.3,2.23-2.71,4.13-.27,1.22-.55,2.44-.78,3.67-.18,.93-.33,1.87-.45,2.8-.2,1.64-.69,3.51-.51,5.17,.13,1.19,.67,2.27,.77,3.48,.2,2.44,.68,4.84,.91,7.28-2.29,.46-5.24,1.11-7.04,2.3-1.18,.78-1.24,2.04-.94,3.33-.47,.16-.93,.37-1.36,.66-2.27,1.53-2.86,3.9-4.48,5.98-1.39,1.77-3.06,2.49-4.97,3.5-2.17,1.15-3.87,2.82-5.71,4.38-1.57,1.33-2.96,2.37-3.31,4.4-.44,2.54,.37,4.97-1.73,6.79-1.73,1.49-3.92,3.25-5.11,5.22-1.77,2.94-.71,4.64,.74,7.22,1.75,3.12,3.36,6.51,5.89,9.16l-45.14,25.15,4.09-.48,43.92-22.29c1.11,.73,2.26,1.4,3.33,2.16,1.69,1.21,3.28,2.96,5.53,3,3.1,.05,4.33-3.53,6.27-5.19,.18,2.45,.26,5.28-.28,7.68-.25,1.1-.24,1.74,.1,2.42-.05,.32-.1,.63-.14,.88-.29,1.65-.18,3.83-.77,5.35-.76,2-2.79,2.25-4.69,3.62-4.54,3.27-8.06,7.92-11.03,12.52-2.1,3.26-4.89,6.03-6.73,9.53-1.16,2.21-2.46,4.55-3.98,6.66-.77,1.06-1.59,2.06-2.49,2.95-2.76,2.74-6.18,4.75-8.47,7.95-3.46,4.86-6.61,10.71-4.16,17.03,.13,.34,.35,.64,.54,.95-.4,.43-.8,.87-1.17,1.33-3.47,4.34-6.89,8.69-10.33,13.01-3.7,4.64-4.89,10.13-9.2,14.23-4.72,4.5-9.87,8.68-13.57,14.13-1.39,2.05-2.86,4.44-3.34,6.91-.58,3.01,1.09,3.59,3.73,4.63ZM91.02,17.66c-.03-.97-.03-1.95-.03-2.91,.01-.9-.05-.96,.95-1.17,1.81-.4,3.66-.43,5.6-.51,1.1-.04,2.19-.03,3.27,0,1.07,.03,2.15,.08,3.23,.12,1.69,.07,3.37,.14,5.03,.43,.99,.17,2.65,.18,3.43,.84,.56,.46,.28,2,.29,2.69,.01,1.08,0,2.17-.15,3.25-.13,.97,.02,2.04-1.2,2.07-3.04,.07-6.12-.61-9.2-.49-2.17,.09-4.33-.18-6.5-.2-1.15,0-3.58,.93-4.48-.07-.64-.7-.21-3.11-.25-4.05Z"/>
    </g>
  </g>
</svg>