<?xml version="1.0" encoding="UTF-8"?>
<svg id="_レイヤー_2" data-name="レイヤー 2" xmlns="http://www.w3.org/2000/svg" viewBox="0 0 198 238.34">
  <g id="_レイヤー_1-2" data-name="レイヤー 1">
    <g id="Abnz0n">
      <path d="M36.31,238.34c-3.36-.46-6.71-1-10.08-1.38-4.23-.47-5.19-1.68-3.66-5.68,1.08-2.83,2.76-5.42,4.01-8.19,2.18-4.86,3.43-9.88,1.86-15.2-2.32-7.84-2.05-15.61,.56-23.33,.96-2.84,.69-5.29-1.84-7.33-2.5-2.03-4.79-4.31-7.23-6.41-1.55-1.34-1.84-2.25-.45-3.78,1.32-1.47,3-2.61,4.37-4.05,.71-.74,1.31-1.73,1.56-2.71,.9-3.51,1.64-7.07,2.44-10.61,.13-.56,.27-1.12,.44-1.85-1.45-.38-2.82-.73-4.39-1.14,1.39-4.59,2.71-8.97,4.08-13.5-.39-.32-.97-.8-1.55-1.27-1.29-1.03-1.83-2.36-1.8-4,.05-3.26,.05-6.52,.04-9.78,0-1.19-.14-2.38-.13-3.57,0-1.24-.5-1.78-1.78-2.05-5.5-1.14-10.99-2.36-16.45-3.67-1.7-.41-3.32-1.16-4.94-1.83-.82-.34-1.61-.81-1.24-1.98,.35-1.13,1.05-1.61,2.24-1.39,4.15,.75,8.29,1.54,12.46,2.21,2.64,.43,5.31,.67,8.14,1.02-1.8-7.28-3.55-14.31-.74-21.71-4.53,.46-8.65,.88-12.77,1.31-2.05,.21-2.27-.05-1.46-1.91,.77-1.77,1.58-3.53,2.4-5.28,.2-.41,.45-1.02,.79-1.11,1.81-.47,1.93-2.14,2.69-3.4,1.88-3.1,3.91-6.12,5.88-9.17,.1-.15,.22-.29,.28-.45,1.67-4.48,4.85-8.06,7.2-12.13,.43-.75,.66-1.62,.93-2.45,.32-1.02,.71-1.73,1.89-2.22,.81-.33,1.31-1.68,1.74-2.66,.51-1.16,1.18-1.8,2.48-2.11,3.01-.72,5.98-1.65,8.96-2.51,.42-.12,.82-.31,1.2-.85-2.3-.14-4.59-.27-7.25-.43,1.01-2.95,2.43-5.65,4.35-8.35-.91-.14-1.54-.24-2.4-.37,.5-1.55,1.03-2.96,1.42-4.41,1.01-3.79,2-7.59,2.9-11.41,.34-1.42,1.09-1.85,2.47-1.8,2.76,.11,4.84,1.58,6.87,3.21,.4,.32,.76,.68,1.39,1.24,.2-.82,.3-1.41,.49-1.97,.53-1.6,.87-3.32,1.73-4.73,.65-1.07,1.12-2.03,1.3-3.29,.55-3.96,4.98-7.82,9.16-7.92-2.58,1.11-3.95,2.82-4.06,5.45,1.38-.15,2.68-.41,3.98-.41,.85,0,1.87,.13,2.51,.61,2.33,1.75,4.54,3.67,7.01,5.7,.54-1.16,1.12-2.44,1.77-3.85,1.45,2.08,1.96,4.47,.74,6.52-1.53,2.57-.13,4.95-.69,7.85,1.53-1.38,2.59-2.43,3.75-3.36,2.02-1.63,4.28-2.6,6.95-2.51,1.05,.03,1.6,.37,1.8,1.44,.5,2.7,1.04,5.4,1.65,8.08,.62,2.73,1.34,5.44,2.06,8.33-.48,.05-.91,.12-1.34,.14-.47,.02-.94-.05-1.4,0-3.91,.32-5.08,2.51-2.88,5.62,1.21,1.71,2.71,3.2,4.05,4.81,.6,.72,1.15,1.48,1.67,2.26,.25,.38,.63,.99,.5,1.24-.84,1.5,.37,2.34,.9,3.43,1.32,2.71,2.37,5.57,3.88,8.17,1.25,2.15,2.22,4.47,4.21,6.26,1.4,1.26,2.18,3.31,2.97,5.12,1.21,2.81,2.18,5.72,3.25,8.59,1.05,2.81,.97,3.01-1.89,4.05-1.27,.46-2.54,.9-3.81,1.35-.05,.02-.07,.08-.2,.23,.97,1.36,1.32,3.09,3.2,3.98,1.02,.48,1.62,1.93,2.29,3.02,.68,1.09,1.06,2.39,1.84,3.39,1.4,1.8,1.38,3.53,.2,5.34-.74,1.13-.75,2.01,.21,3.12,.54,.62,.48,1.76,.68,2.67,.08,.36,.03,.9,.24,1.04,1.98,1.29,1.83,3.15,1.19,4.96-.37,1.06-.02,1.65,.61,2.28,1.16,1.17,1.91,2.47,1.84,4.21-.02,.42,.55,.85,1.02,1.52,.68-1.27,1.14-2.11,1.59-2.96,.21,.02,.41,.03,.62,.05,0,.64,.12,1.3-.02,1.9-.3,1.29,.16,1.81,1.41,2.25,24.18,8.44,48.95,14.49,74.27,18.33,.78,.12,1.56,.25,2.64,.43-1.54,1.39-2.63,2.43-4.74,2.18-21.03-2.47-41.52-7.31-61.65-13.76-3.79-1.22-7.63-2.28-11.4-3.56-1.47-.49-2.42-.43-2.96,1.17-.12,.35-.45,.63-.68,.94-.19-.02-.38-.04-.57-.06,.04-.86,.08-1.71,.13-2.62-1.48-1.36-2.48,.17-3.65,.63-.41,.16-.87,.59-1.21,.51-2.19-.52-4.39-1.06-6.51-1.83-.43-.16-.81-1.39-.68-2,.31-1.37,0-2.04-1.37-2.48-1.6-.52-3.13-1.27-5.19-2.12,.7,1.58,1.15,2.81,1.77,3.95,.99,1.84,2.28,3.53,3.09,5.43,2.4,5.59,4.6,11.26,6.94,16.88,.58,1.41,.42,2.39-1.1,2.9-.89,.3-1.36,.78-1.56,1.78-.1,.51-.84,1.08-1.41,1.27-1.77,.6-3.59,1.02-5.66,1.59,.45,1.31,1.01,2.52,1.28,3.8,.28,1.33,.63,2.8,.33,4.06-.81,3.48-1.87,6.9-2.97,10.3-.24,.76-.96,1.43-1.61,1.97-1.52,1.28-3.18,2.4-4.7,3.69-2.34,1.98-2.34,2.63-.21,4.81,.24,.25,.59,.39,1.27,.83-3.13,1.25-1.78,3.44-1.79,5.3-.02,4.74-.03,9.48,.04,14.23,0,.63,.41,1.29,.72,1.88,.43,.8,.72,1.42,.11,2.39-.38,.6-.38,1.89,.03,2.43,.8,1.05,1.98,1.81,3.04,2.65,.73,.57,1.52,1.07,2.34,1.63,1.79-.69,3.36-.15,4.82,1.61,.39,.47,.97,1,1.53,1.08,3.49,.49,5.94,2.61,8.19,5.04,.39,.42,.73,.94,.94,1.47,1.13,2.79,.51,3.92-2.44,4.25-7.83,.88-15.52,.32-23.05-2.21-1.8-.6-3.8-.61-5.72-.81-1.75-.18-2.26-.63-1.93-2.33,.53-2.7,1.42-5.34,1.79-8.05,.19-1.37-.15-2.96-.72-4.24-.76-1.68-1.76-3.18-2.22-5.08-.53-2.2-1.85-4.2-2.81-6.29-.22-.47-.53-.96-.55-1.45-.08-2.37-1.4-4.15-2.61-6.02-.53-.82-.97-1.82-1.08-2.78-.2-1.77-.08-3.58-.19-5.37-.02-.36-.37-.84-.7-1.03-.6-.35-1.32-.48-1.95-.79-1.65-.8-3.61-1.26-3.9-3.85-2.83,2.05-5.32,4.1-8.06,5.72-1.42,.84-3.31,1.39-4.94,1.27-2.7-.2-4.32,.97-5.56,3.05-.3,.5-.36,1.16-.5,1.75-.07,.33,.07,.85-.11,.99-1.5,1.17-1.11,2.85-1.2,4.37-.21,3.56-1.1,6.91-2.65,10.13-1.35,2.79-2.62,5.63-1.92,8.88,.03,.16,.01,.37-.06,.51-1.61,3.19-.16,6.02,.95,8.94,.51,1.33,.51,2.85,.79,4.27,.25,1.24,.55,2.46,.86,3.69,.44,1.75,1.14,3.47,1.32,5.25,.27,2.61-.71,3.75-3.21,4.48-.5,.14-.99,.31-1.48,.46h-2.81Zm-.37-129.88c.7-.06,1.21,.04,1.56-.15,1.75-.94,2.73-2.56,3.58-4.29,.32-.65,.79-1.25,1.3-1.76,.7-.69,1.26-1.17,.91-2.44-.86-3.08-1.46-6.24-2.07-9.39-.26-1.33-.3-2.7-.44-4.11-1.63,.63-2.44,2.32-2.29,4.18,.06,.73-.1,1.48-.16,2.22-.09,1.17-.44,2.39-.2,3.48,.43,1.99,.21,3.67-1.18,5.21-.45,.49-.9,1.17-.95,1.79-.13,1.67-.04,3.36-.04,5.23Zm58.42,1.42c.2,.37,.37,1.24,.84,1.47,2.55,1.21,5.17,2.25,7.76,3.36,.08-.14,.16-.28,.24-.42-1.32-1.55-2.67-3.01-4.97-3.32-1.31-.18-2.56-.7-3.88-1.08Z"/>
    </g>
  </g>
</svg>