<?xml version="1.0" encoding="UTF-8"?>
<svg id="_レイヤー_2" data-name="レイヤー 2" xmlns="http://www.w3.org/2000/svg" viewBox="0 0 117.62 197.03">
  <g id="_レイヤー_1-2" data-name="レイヤー 1">
    <path d="M26,191.64c2.3,.38,4.6,.76,8.11,1.34-1.74,1.36-2.4,2.18-3.26,2.49-8.4,3.12-12.83,1.63-18.46-5.1-2.57-3.07-6.01-5.44-9.14-8.03-4.57-3.78-4.2-6.43,.41-9.96,3.46-2.65,7.21-5.81,8.99-9.6,3.66-7.83,9.21-13.58,16.2-18.11,5.8-3.76,7.07-8.15,4.43-14.68-2.24-5.54-3.1-11.64-4.72-18.12-3.08,2.13-6.16,4.25-9.79,6.75,.74-12.84-2.6-25.66,6.03-36.66,3.4-4.34,3.13-8.62,1.39-13.96-4.35-13.34-5.04-26.68,2.9-39.49,2.6-4.2,3.5-9.45,5.16-14.23C38.97,.7,44.41-2.19,58.81,1.43c4.45,6.84,8.63,14.32,3.98,22.37-1.62,2.81-7.09,3.41-10.8,5.03-.64-.56-1.27-1.12-1.91-1.67,.13,1.55-.2,3.34,.45,4.61,5.01,9.76,10.08,19.42,7.64,31.04-1.29,6.14-2.3,12.34-3.26,17.5,7.72,11.12,19.58,9.61,32.1,11.42,5.79-2.28,13.69-5.7,21.83-8.4,2.48-.82,5.72,.06,8.38,.91,.5,.16,.63,4.37-.39,5.73-1.26,1.69-3.77,2.84-5.94,3.4-8.98,2.3-18.03,4.29-26.59,6.28-1.02,1.77-1.66,2.89-1.43,2.49-7.62,1.36-14.01,2.51-20.58,3.68q4.08,9.39-1.74,15.33c-.04,.18-.19,.44-.13,.62,5.96,17.37-.4,34.84,.36,52.27,.38,8.62,5.14,12.78,16.23,13.37,2.95,.16,5.82,1.71,8.73,2.62-.04,.77-.08,1.53-.13,2.3-1.3,.62-2.56,1.69-3.9,1.8-8.58,.68-17.18,1.16-25.77,1.67-3.38,.2-5.11-1.01-5.35-4.86-.56-9.06-1.82-18.07-2.39-27.12-.38-6.08-.07-12.2-.07-18.37-9.51,9.12-19.62,18.6-29.4,28.41-1.53,1.54-1.57,4.56-1.94,5.73,3.69,4.08,6.57,7.23,9.37,10.46,.25,.28-.09,1.08-.15,1.63,.04-.02,.07-.03,.11-.05-.05,0-.1,0-.15,0Zm44.55-93.28c-5.04-1.16-8.83-2.03-13.53-3.11,.53,2.87,.93,5.04,1.39,7.53,4.1-1.5,7.5-2.74,12.14-4.43Z"/>
  </g>
</svg>