<?xml version="1.0" encoding="UTF-8"?>
<svg id="_レイヤー_2" data-name="レイヤー 2" xmlns="http://www.w3.org/2000/svg" viewBox="0 0 104.54 219.08">
  <g id="_レイヤー_1-2" data-name="レイヤー 1">
    <path d="M12.89,21.37c4.94-.32,9.53-.71,14.14-.85,.86-.03,1.94,.73,2.58,1.44,2.88,3.16,5.32,6.84,9.83,7.68,.32-3.85,.51-7.78,1.03-11.67,.21-1.6,1.11-3.11,1.73-4.64,.54-1.32,1.1-2.64,1.73-3.93,.32-.65,.68-1.35,1.21-1.82,2.42-2.13,4.88-4.2,7.38-6.25,.52-.42,1.18-.77,1.83-.92,5.78-1.27,10.98,.45,15.6,3.69,1.25,.87,1.74,3.16,2.1,4.89,.72,3.43,2.15,6.89,.34,10.47-.2,.4,.46,1.34,.87,1.92,1.18,1.68,.95,2.5-.7,3.51-.77,.47-1.54,1.36-1.76,2.21-.47,1.77-.66,3.62-.8,5.45-.21,2.67-1.49,3.75-4.23,3.62-1.21-.06-2.43,.25-4.27,.47,2.11,2.48,2.81,4.97,5.61,6.1,2.68,1.08,5.07,2.9,7.49,4.56,3.66,2.51,7.69,2.15,11.73,1.75,3.91-.39,6.72,2.81,5.63,6.8,4.07,2.19,8.18,4.39,12.57,6.75-.95,1.25-1.8,2.38-2.77,3.66-4.35-2.39-8.63-4.74-12.75-7-3.07,3.62-6.86,6.66-8.73,10.6-3.14,6.59-9.05,10.49-13.33,15.91-.95,1.2-1.41,2.24-1.13,3.72,.48,2.57,1.09,5.14,1.24,7.74,.26,4.53,.42,9.09,.23,13.63-.13,3.16,.1,6.02,1.69,8.86,2.07,3.69,2.52,7.79,2.52,12.04,0,7.6,.4,15.2,.53,22.81,.14,7.84,.14,15.69,.24,23.54,.11,7.69,.33,15.39,.38,23.08,.02,3.07,1.13,4.88,4.18,6,5.17,1.9,10.2,3.77,15.89,2.83,2.36-.39,2.9,.54,2.2,2.86-.98,3.25-4.04,5.72-7.54,5.82-7.07,.2-14.15,.32-21.23,.39-2.89,.03-4.11-1.14-3.92-3.88,.7-9.66-1.45-18.83-5.04-27.66-2.03-4.99-2.31-9.92-1.32-15.12,.63-3.31,.93-6.7,1.14-10.07,.18-2.84-1.14-5.16-3.11-7.09-.25,.09-.45,.1-.5,.19-5.17,10.41-13.88,17.71-22.21,25.35-4.25,3.9-8.46,7.83-12.68,11.76-1.96,1.83-2.24,4.05-1.55,6.55,.86,3.11,1.66,6.23,2.39,9.38,.35,1.51,1.23,2.1,2.69,2.38,1.24,.24,2.53,.69,3.57,1.38,1.74,1.15,1.57,2.86-.35,3.72-1.02,.45-2.22,.65-3.34,.67-1.68,.04-3.43,.05-5.04-.36-1.16-.3-2.4-1.09-3.17-2.02-3.7-4.52-7.21-9.18-12.17-12.52-2.14-1.44-2.05-4.96-.04-7.22,2.51-2.81,5.34-5.36,7.67-8.3,2.36-2.98,4.61-6.15,6.32-9.53,2.28-4.5,5.1-8.36,9.26-11.25,4.59-3.19,8.49-7.04,9.44-12.83,.59-3.62,.63-7.33,.49-11.23-1.73,2.11-3.46,4.22-5.19,6.34-.22-.09-.45-.19-.67-.28,.15-.98,.19-1.99,.48-2.92,1.67-5.37,2.5-10.78,1.02-16.34-.08-.29-.15-.63-.08-.91,1.56-6.51-1.41-12.7-1.36-19.13,.03-3.85,.45-7.41,3-10.34,2.71-3.12,3.34-6.53,2.57-10.51-2.33-12.09-2.15-24.34-1.84-36.56,.13-5.26,2.21-10.03,5.85-14.07-.92-1.08-1.88-1.44-2.87-.32-1.19,1.34-2.24,.88-3.62,.24-7.44-3.45-13.74-8.32-19.13-15.17Zm62.47,34.29c-2.35-1.22-4.28-2.22-6.49-3.37-.6,3.46-1.14,6.61-1.79,10.38,3-2.54,5.49-4.65,8.28-7.01Z"/>
  </g>
</svg>